<?xml version="1.0" encoding="UTF-8"?>
<!--
Font Awesome Pro 5.15.3 by @fontawesome - https://fontawesome.com
License - https://fontawesome.com/license (Commercial License)
-->
<svg xmlns="http://www.w3.org/2000/svg" style="display: none;">
  <defs><style>.fa-secondary { opacity:.4; }</style></defs>
  <symbol id="check" viewBox="0 0 512 512">
    <path d="M504.5 144.42L264.75 385.5 192 312.59l240.11-241a25.49 25.49 0 0 1 36.06-.14l.14.14L504.5 108a25.86 25.86 0 0 1 0 36.42z" class="fa-secondary"></path><path d="M264.67 385.59l-54.57 54.87a25.5 25.5 0 0 1-36.06.14l-.14-.14L7.5 273.1a25.84 25.84 0 0 1 0-36.41l36.2-36.41a25.49 25.49 0 0 1 36-.17l.16.17z" class="fa-primary"></path>
  </symbol>
  <symbol id="cheeseburger" viewBox="0 0 512 512">
    <path d="M58.6 224h394.7c34.6 0 54.6-43.9 34.8-75.9C448 83.2 359.5 32.1 256 32c-103.5.1-192 51.2-232.2 116.1-19.8 32 .3 75.9 34.8 75.9zM384 112a16 16 0 1 1-16 16 16 16 0 0 1 16-16zM256 80a16 16 0 1 1-16 16 16 16 0 0 1 16-16zm-128 32a16 16 0 1 1-16 16 16 16 0 0 1 16-16zm352 272H32a16 16 0 0 0-16 16v16a64.06 64.06 0 0 0 64 64h352a64.06 64.06 0 0 0 64-64v-16a16 16 0 0 0-16-16z" class="fa-secondary"></path><path d="M512 304a48 48 0 0 1-48 48H48a48 48 0 0 1 0-96h176l96 64 96-64h48a48 48 0 0 1 48 48z" class="fa-primary"></path>
  </symbol>
  <symbol id="spinner-third" viewBox="0 0 512 512">
    <path d="M478.71 364.58zm-22 6.11l-27.83-15.9a15.92 15.92 0 0 1-6.94-19.2A184 184 0 1 1 256 72c5.89 0 11.71.29 17.46.83-.74-.07-1.48-.15-2.23-.21-8.49-.69-15.23-7.31-15.23-15.83v-32a16 16 0 0 1 15.34-16C266.24 8.46 261.18 8 256 8 119 8 8 119 8 256s111 248 248 248c98 0 182.42-56.95 222.71-139.42-4.13 7.86-14.23 10.55-22 6.11z" class="fa-secondary"></path><path d="M271.23 72.62c-8.49-.69-15.23-7.31-15.23-15.83V24.73c0-9.11 7.67-16.78 16.77-16.17C401.92 17.18 504 124.67 504 256a246 246 0 0 1-25 108.24c-4 8.17-14.37 11-22.26 6.45l-27.84-15.9c-7.41-4.23-9.83-13.35-6.2-21.07A182.53 182.53 0 0 0 440 256c0-96.49-74.27-175.63-168.77-183.38z" class="fa-primary"></path>
  </symbol>
  <symbol id="swatchbook" viewBox="0 0 512 512">
    <path d="M64,256h64V192H64Zm370.66-88.29h0L344.5,77.36a31.83,31.83,0,0,0-45-.07h0l-.07.07L224,152.88V424L434.66,212.9A32,32,0,0,0,434.66,167.71ZM64,128h64V64H64ZM480,320H373.09L186.68,506.51c-2.06,2.07-4.5,3.58-6.68,5.49H480a32,32,0,0,0,32-32V352A32,32,0,0,0,480,320Z" class="fa-secondary"></path><path d="M160,0H32A32,32,0,0,0,0,32V416a96,96,0,0,0,192,0V32A32,32,0,0,0,160,0ZM96,440a24,24,0,1,1,24-24A24,24,0,0,1,96,440Zm32-184H64V192h64Zm0-128H64V64h64Z" class="fa-primary"></path>
  </symbol>
</svg>
